<svg xmlns="http://www.w3.org/2000/svg" width="2000" height="498" viewBox="0 0 2000 498">
<g>
<path d="M 1490.76 378.63 L 1490.50 417.50 L 1481.25 417.79 L 1472.00 418.08 L 1472.00 230.00 L 1491.00 230.00 L 1491.00 247.23 L 1495.09 243.53 C1501.70,237.56 1510.32,232.47 1518.17,229.90 C1524.44,227.85 1527.45,227.50 1539.00,227.50 C1550.15,227.50 1553.72,227.88 1559.50,229.71 C1568.25,232.47 1580.46,240.41 1586.41,247.22 C1592.52,254.20 1599.42,268.01 1601.52,277.46 C1604.07,288.91 1603.23,305.83 1599.59,316.49 C1594.53,331.27 1586.06,342.47 1573.67,350.76 C1562.63,358.14 1554.24,360.50 1539.00,360.50 C1528.51,360.50 1525.32,360.11 1519.17,358.10 C1511.07,355.45 1502.37,350.23 1495.52,343.91 L 1491.02 339.77 ZM 1400.50 357.64 C1389.43,361.20 1373.44,361.83 1363.50,359.10 C1353.27,356.30 1347.47,353.54 1339.73,347.80 C1318.72,332.23 1309.14,306.63 1314.53,280.52 C1319.18,258.00 1335.64,238.95 1357.12,231.24 C1367.03,227.68 1387.69,226.82 1397.92,229.55 C1409.58,232.65 1417.69,237.43 1426.50,246.37 C1434.87,254.86 1439.05,261.61 1443.02,273.00 C1446.14,281.96 1446.88,298.93 1444.60,309.20 C1439.56,331.85 1422.52,350.57 1400.50,357.64 ZM 1710.00 358.46 C1706.61,359.50 1699.69,360.32 1692.00,360.59 C1681.71,360.95 1678.22,360.68 1672.24,359.06 C1652.50,353.70 1638.31,342.54 1630.13,325.95 C1616.22,297.73 1623.80,259.34 1646.77,241.68 C1659.48,231.91 1671.59,227.76 1687.50,227.73 C1705.32,227.70 1715.81,231.82 1727.59,243.48 C1735.44,251.26 1740.73,260.64 1743.65,272.00 C1745.37,278.65 1746.07,295.10 1744.78,298.25 C1744.11,299.88 1740.69,300.00 1692.99,300.00 L 1641.91 300.00 L 1642.57 303.75 C1646.86,327.90 1665.07,343.00 1689.90,343.00 C1702.69,343.00 1716.79,338.24 1726.35,330.70 L 1730.21 327.67 L 1735.06 333.08 C1737.73,336.06 1739.93,339.02 1739.96,339.66 C1740.02,341.40 1728.35,350.32 1721.50,353.76 C1718.20,355.42 1713.03,357.53 1710.00,358.46 ZM 1846.78 359.00 C1836.23,361.53 1823.18,361.51 1812.77,358.95 C1782.21,351.44 1762.42,323.29 1764.29,290.00 C1764.98,277.78 1768.40,266.99 1774.98,256.32 C1784.72,240.51 1799.99,230.72 1819.23,227.95 C1850.03,223.52 1875.79,240.73 1883.67,271.00 C1885.26,277.11 1886.21,297.12 1884.97,298.36 C1884.68,298.65 1861.60,299.21 1833.68,299.60 L 1782.91 300.32 L 1783.52 303.41 C1788.78,329.89 1807.38,344.38 1834.00,342.72 C1845.00,342.03 1853.81,339.18 1862.42,333.52 C1866.40,330.90 1870.01,329.21 1870.92,329.52 C1871.79,329.83 1874.28,332.38 1876.46,335.20 L 1880.41 340.33 L 1875.24 344.96 C1868.62,350.90 1857.30,356.48 1846.78,359.00 ZM 1099.59 359.00 C1089.99,361.43 1072.99,361.58 1062.50,359.34 C1046.95,356.01 1031.28,347.83 1020.78,337.56 L 1020.29 337.09 C1016.06,332.95 1014.05,330.99 1014.09,329.06 C1014.13,327.25 1015.99,325.48 1019.55,321.96 L 1025.98 315.58 L 1029.74 319.15 C1045.60,334.22 1061.36,341.00 1081.00,341.20 C1108.80,341.49 1126.08,326.79 1124.78,303.96 C1124.45,298.09 1123.72,295.26 1121.49,291.16 C1115.49,280.13 1107.96,275.78 1074.50,264.01 C1057.56,258.05 1049.15,253.98 1040.77,247.67 C1032.52,241.46 1028.46,236.81 1024.55,229.09 C1012.52,205.35 1022.73,173.24 1046.04,161.48 C1058.52,155.19 1065.93,153.50 1081.00,153.50 C1098.75,153.50 1110.01,156.43 1124.33,164.79 C1130.75,168.54 1139.00,175.93 1139.00,177.94 C1139.00,178.64 1136.17,182.14 1132.71,185.70 L 1126.41 192.18 L 1122.34 188.78 C1109.62,178.16 1098.45,173.80 1082.36,173.21 C1066.62,172.62 1057.79,175.42 1048.63,183.91 C1042.69,189.42 1040.02,195.98 1040.01,205.07 C1040.00,215.81 1042.12,221.28 1048.93,228.03 C1056.00,235.04 1063.64,238.94 1088.00,247.99 C1110.38,256.30 1119.40,260.52 1126.56,266.05 C1138.87,275.54 1145.37,289.22 1145.32,305.50 C1145.23,331.34 1127.66,351.91 1099.59,359.00 ZM 1189.50 271.50 L 1188.50 357.50 L 1179.95 357.79 C1175.25,357.94 1171.09,357.76 1170.70,357.37 C1170.32,356.98 1170.00,311.29 1170.00,255.83 L 1170.00 155.00 L 1189.00 155.00 L 1189.00 246.04 L 1195.75 240.48 C1207.51,230.78 1218.41,227.04 1235.04,227.01 C1251.78,226.99 1262.42,231.16 1273.01,241.89 C1280.38,249.36 1284.17,256.35 1287.08,267.84 C1288.87,274.93 1289.00,278.70 1288.76,316.51 L 1288.50 357.50 L 1270.50 357.50 L 1269.98 315.00 C1269.48,273.79 1269.40,272.33 1267.20,266.85 C1264.03,258.96 1258.20,252.72 1250.41,248.88 C1244.83,246.13 1242.58,245.63 1234.15,245.22 C1223.82,244.72 1216.64,246.10 1208.84,250.08 C1203.96,252.57 1195.78,260.81 1192.28,266.76 ZM 1525.72 341.43 C1546.21,346.40 1567.00,337.51 1577.73,319.20 C1583.65,309.10 1585.64,292.72 1582.45,280.46 C1579.06,267.45 1568.68,254.49 1557.56,249.40 C1539.17,240.98 1514.89,245.80 1500.82,260.67 C1499.34,262.22 1496.53,266.17 1494.57,269.44 L 1491.00 275.38 L 1491.00 293.43 C1491.00,311.12 1491.05,311.58 1493.75,316.92 C1499.59,328.48 1512.21,338.16 1525.72,341.43 ZM 1366.40 341.11 C1397.23,349.94 1427.00,327.03 1427.00,294.48 C1427.00,271.58 1413.39,252.92 1392.66,247.40 C1386.57,245.78 1375.33,245.63 1369.00,247.09 C1355.43,250.21 1342.86,260.79 1336.23,274.68 C1332.56,282.37 1332.50,282.69 1332.50,294.58 L 1332.50 306.65 L 1336.72 315.16 C1343.53,328.91 1353.15,337.32 1366.40,341.11 ZM 1643.00 282.04 C1643.00,283.96 1643.93,284.00 1684.50,284.00 L 1726.00 284.00 L 1726.00 281.11 C1726.00,273.11 1719.39,259.63 1712.59,253.75 C1705.19,247.36 1691.88,244.19 1680.17,246.04 C1667.88,247.97 1655.36,255.71 1649.52,265.00 C1646.86,269.22 1643.00,279.31 1643.00,282.04 ZM 1784.32 280.40 L 1783.74 284.00 L 1824.90 284.00 C1860.42,284.00 1866.14,283.80 1866.63,282.51 C1866.95,281.69 1866.65,278.66 1865.97,275.76 C1863.21,264.08 1855.74,253.98 1846.51,249.46 C1830.65,241.70 1807.77,245.99 1795.59,259.00 C1790.59,264.35 1785.30,274.40 1784.32,280.40 ZM 440.00 380.03 C440.00,381.23 335.42,381.16 329.27,379.95 C323.12,378.73 317.06,375.68 312.50,371.49 C310.30,369.47 309.79,368.76 311.37,369.90 C312.94,371.04 314.63,371.73 315.12,371.43 C315.60,371.13 316.00,371.36 316.00,371.94 C316.00,372.52 317.10,373.00 318.43,373.00 C319.77,373.00 322.14,373.51 323.68,374.13 C328.42,376.02 368.61,378.26 405.25,378.66 C426.89,378.90 440.00,379.42 440.00,380.03 ZM 356.50 446.00 C358.36,449.00 349.86,445.03 345.38,440.80 C342.93,438.50 342.13,436.74 341.65,432.68 C341.31,429.83 341.44,426.15 341.93,424.50 L 342.83 421.50 L 342.91 424.56 C342.96,426.24 344.09,430.41 345.43,433.81 C346.76,437.21 347.57,440.00 347.23,440.00 C345.68,440.00 350.71,442.94 352.31,442.97 C353.30,442.99 353.84,443.45 353.50,444.00 C353.16,444.55 353.56,445.00 354.38,445.00 C355.21,445.00 356.16,445.45 356.50,446.00 ZM 300.46 353.89 C302.13,358.61 301.71,359.28 299.62,355.24 C297.30,350.74 295.68,340.37 296.33,334.14 C297.49,322.99 298.57,323.80 298.35,335.67 C298.20,343.81 298.45,346.95 299.15,345.95 C299.90,344.87 300.01,345.18 299.59,347.14 C299.27,348.60 299.67,351.64 300.46,353.89 Z" fill="rgb(25,38,103)"/>
<path d="M 440.00 380.03 C440.00,379.42 426.89,378.90 405.25,378.66 C368.61,378.26 328.42,376.02 323.68,374.13 C322.14,373.51 319.77,373.00 318.43,373.00 C317.10,373.00 316.00,372.52 316.00,371.94 C316.00,371.36 315.60,371.13 315.12,371.43 C314.63,371.73 312.94,371.04 311.37,369.90 C309.79,368.76 310.30,369.47 312.50,371.49 C317.05,375.67 323.09,378.72 329.22,379.94 C329.15,379.93 329.09,379.92 329.05,379.91 C316.36,377.42 305.65,368.39 300.11,356.14 C301.77,359.14 301.99,358.22 300.46,353.89 C299.67,351.64 299.27,348.60 299.59,347.14 C300.01,345.18 299.90,344.87 299.15,345.95 C298.45,346.95 298.20,343.81 298.35,335.67 C298.47,329.22 298.21,326.04 297.75,326.26 C300.34,317.50 305.89,309.70 313.95,304.00 L 316.06 302.50 L 312.44 294.00 C300.11,265.04 289.97,239.46 290.28,238.09 C290.48,237.22 291.37,238.75 292.24,241.50 C293.12,244.25 295.44,249.43 297.40,253.00 C299.35,256.58 300.96,260.11 300.98,260.85 C301.02,263.43 311.05,282.70 313.60,285.09 C315.62,286.99 317.29,287.51 321.51,287.57 C324.45,287.61 327.45,288.13 328.18,288.73 C330.34,290.51 336.31,291.21 339.39,290.04 C342.10,289.01 342.22,288.70 341.75,284.23 C341.47,281.63 340.91,278.71 340.51,277.75 C340.11,276.79 340.17,276.00 340.64,276.01 C341.11,276.01 343.62,281.07 346.22,287.26 C348.81,293.44 351.28,298.44 351.72,298.36 C352.15,298.28 358.35,297.94 365.50,297.60 L 378.50 296.99 L 373.50 299.07 C370.75,300.22 368.37,301.29 368.21,301.46 C368.05,301.62 369.62,302.62 371.71,303.69 C373.79,304.75 378.15,307.09 381.39,308.88 C384.84,310.78 389.39,312.36 392.39,312.70 C395.20,313.02 397.95,313.60 398.50,314.00 C400.57,315.50 421.97,315.91 434.10,314.68 C446.29,313.44 471.07,313.86 466.00,315.21 C464.62,315.58 452.48,316.81 439.00,317.95 C425.52,319.09 401.67,321.11 386.00,322.45 C370.33,323.79 352.77,325.19 347.00,325.57 C335.27,326.34 331.81,327.62 328.96,332.30 C325.11,338.61 327.30,345.58 334.25,349.13 C338.31,351.20 339.56,351.27 368.98,351.11 C400.28,350.93 419.32,351.67 418.49,353.02 C418.23,353.44 419.70,354.55 421.76,355.48 C423.82,356.42 428.09,358.47 431.25,360.04 C434.41,361.62 438.68,363.20 440.75,363.55 C445.48,364.35 460.37,370.48 465.00,373.52 C470.81,377.35 479.73,379.00 494.58,379.00 C502.86,379.00 508.00,379.38 508.00,380.00 C508.00,380.72 451.74,381.00 402.27,380.87 C422.98,380.79 440.00,380.51 440.00,380.03 ZM 356.50 446.00 C356.16,445.45 355.21,445.00 354.38,445.00 C353.56,445.00 353.16,444.55 353.50,444.00 C353.84,443.45 353.30,442.99 352.31,442.97 C350.71,442.94 345.68,440.00 347.23,440.00 C347.57,440.00 346.76,437.21 345.43,433.81 C344.09,430.41 342.96,426.24 342.91,424.56 L 342.83 421.50 L 341.97 424.38 C342.59,419.17 344.44,415.63 348.45,411.19 C352.32,406.91 358.87,404.00 364.64,404.00 C370.74,404.00 378.50,407.72 382.97,412.79 C386.91,417.26 388.28,418.78 388.75,420.54 C388.99,421.48 388.99,422.48 388.98,424.02 L 388.98 424.21 C388.93,432.70 382.82,441.78 374.54,445.63 C368.97,448.23 362.40,448.59 356.45,447.03 C356.83,446.94 356.88,446.62 356.50,446.00 ZM 538.92 446.88 C529.66,450.11 519.78,448.41 512.20,442.28 C509.18,439.83 508.37,438.39 507.76,434.39 C506.88,428.54 508.44,419.76 511.14,415.32 C514.07,410.51 519.48,406.22 524.23,404.94 C528.95,403.67 536.96,404.11 541.39,405.89 C545.67,407.62 543.93,408.26 538.61,406.92 C533.28,405.58 529.76,406.09 523.03,409.18 C518.20,411.39 516.85,413.15 513.51,421.47 C512.01,425.22 512.02,425.52 513.83,426.97 C514.88,427.81 518.50,430.66 521.87,433.31 C525.24,435.95 528.00,438.70 528.00,439.40 C528.00,442.18 531.79,444.19 536.94,444.15 C542.65,444.11 543.51,445.28 538.92,446.88 ZM 379.09 428.83 C380.44,432.70 381.24,432.78 383.97,429.32 C386.46,426.14 386.29,424.26 383.32,422.30 C381.33,420.97 381.01,421.06 379.57,423.26 C378.29,425.20 378.20,426.28 379.09,428.83 ZM 341.86 434.18 C342.37,437.22 343.26,438.80 345.38,440.80 C347.16,442.49 349.58,444.13 351.73,445.31 C349.06,444.04 346.63,442.33 344.64,440.21 C342.77,438.21 342.10,437.15 341.86,434.18 ZM 296.80 330.24 C296.64,331.32 296.49,332.62 296.33,334.14 C295.91,338.13 296.43,343.84 297.47,348.60 C297.29,347.91 297.13,347.21 296.99,346.51 C295.85,340.96 295.82,335.47 296.80,330.24 Z" fill="rgb(38,74,135)"/>
<path d="M 344.65 283.63 C342.68,279.21 341.02,276.01 340.64,276.01 C340.17,276.00 340.11,276.79 340.51,277.75 C340.91,278.71 341.47,281.63 341.75,284.23 C342.22,288.70 342.10,289.01 339.39,290.04 C336.31,291.21 330.34,290.51 328.18,288.73 C327.45,288.13 324.45,287.61 321.51,287.57 C317.29,287.51 315.62,286.99 313.60,285.09 C311.05,282.70 301.02,263.43 300.98,260.85 C300.96,260.11 299.35,256.58 297.40,253.00 C295.44,249.43 293.12,244.25 292.24,241.50 C291.37,238.75 290.48,237.22 290.28,238.09 C290.06,239.05 295.00,251.98 302.25,269.63 C300.71,265.96 299.25,262.44 298.04,259.52 C294.63,251.28 290.98,242.64 289.92,240.32 C288.86,238.01 288.00,235.72 288.00,235.24 C288.00,234.77 287.15,232.60 286.10,230.44 C285.06,228.27 278.12,212.10 270.69,194.50 C263.26,176.90 254.44,156.02 251.09,148.09 C247.73,140.17 245.15,133.51 245.36,133.31 C245.82,132.84 248.67,137.12 251.80,143.00 C253.11,145.48 255.63,149.30 257.39,151.50 C260.91,155.91 270.48,169.34 282.68,187.00 C287.05,193.32 294.39,203.68 298.97,210.00 C303.56,216.32 310.69,226.23 314.81,232.00 C323.94,244.80 325.86,246.99 327.43,246.39 C328.66,245.92 329.56,247.87 343.95,281.97 ZM 457.61 316.23 C462.19,315.77 465.34,315.39 466.00,315.21 C471.07,313.86 446.29,313.44 434.10,314.68 C421.97,315.91 400.57,315.50 398.50,314.00 C397.95,313.60 395.20,313.02 392.39,312.70 C389.39,312.36 384.84,310.78 381.39,308.88 C378.15,307.09 373.79,304.75 371.71,303.69 C369.62,302.62 368.05,301.62 368.21,301.46 C368.37,301.29 370.75,300.22 373.50,299.07 L 378.50 296.99 L 365.50 297.60 C364.31,297.66 363.16,297.72 362.04,297.77 C369.16,297.25 378.69,296.38 393.76,294.88 C412.74,292.99 425.97,292.64 412.32,294.39 C404.64,295.37 403.10,297.59 409.44,298.54 C411.83,298.90 451.18,299.26 496.89,299.35 C559.53,299.46 580.00,299.79 580.00,300.67 C580.00,302.54 573.89,305.71 569.00,306.37 C566.53,306.70 551.13,308.11 534.79,309.48 C518.45,310.86 492.35,313.13 476.79,314.53 C470.23,315.11 463.98,315.67 457.61,316.23 ZM 567.98 379.25 C564.72,380.88 557.09,380.99 449.00,380.89 C447.23,380.89 445.46,380.89 443.71,380.88 C478.65,380.81 508.00,380.52 508.00,380.00 C508.00,379.38 502.86,379.00 494.58,379.00 C479.73,379.00 470.81,377.35 465.00,373.52 C460.37,370.48 445.48,364.35 440.75,363.55 C438.68,363.20 434.41,361.62 431.25,360.04 C428.09,358.47 423.82,356.42 421.76,355.48 C419.70,354.55 418.23,353.44 418.49,353.02 C418.89,352.37 414.69,351.86 406.74,351.53 C427.34,351.70 453.98,351.87 488.50,352.08 C512.37,352.23 520.71,352.55 516.50,353.16 C504.89,354.84 496.06,355.22 493.05,354.17 C491.20,353.52 489.82,353.48 489.46,354.06 C489.14,354.58 485.31,355.00 480.94,355.00 C476.31,355.00 473.00,355.42 473.00,356.00 C473.00,356.55 473.62,357.00 474.38,357.00 C475.14,357.00 476.27,357.62 476.89,358.37 C477.52,359.13 483.76,362.33 490.77,365.49 C497.77,368.65 506.65,372.75 510.51,374.62 L 517.52 378.00 L 538.01 377.99 C564.85,377.98 568.49,377.53 571.08,373.89 C572.18,372.34 573.35,368.82 573.68,366.06 C574.20,361.65 573.94,360.59 571.51,357.27 L 568.75 353.50 L 572.38 357.31 C575.51,360.60 576.00,361.76 576.00,365.91 C576.00,371.75 573.01,376.72 567.98,379.25 ZM 551.61 437.02 C549.45,440.28 545.82,443.30 541.75,445.41 C542.34,444.62 540.68,444.12 536.94,444.15 C531.79,444.19 528.00,442.18 528.00,439.40 C528.00,438.70 525.24,435.95 521.87,433.31 C518.50,430.66 514.88,427.81 513.83,426.97 C512.02,425.52 512.01,425.22 513.51,421.47 C516.85,413.15 518.20,411.39 523.03,409.18 C529.76,406.09 533.28,405.58 538.61,406.92 C541.35,407.61 543.14,407.78 543.65,407.54 C548.74,411.13 555.00,417.61 555.00,419.94 C555.00,420.98 555.45,421.98 556.01,422.17 C557.57,422.69 554.71,432.32 551.61,437.02 ZM 379.09 428.83 C378.20,426.28 378.29,425.20 379.57,423.26 C381.01,421.06 381.33,420.97 383.32,422.30 C386.29,424.26 386.46,426.14 383.97,429.32 C381.24,432.78 380.44,432.70 379.09,428.83 ZM 367.83 351.11 C339.53,351.27 338.26,351.17 334.25,349.13 C334.18,349.09 334.11,349.06 334.04,349.02 C336.35,350.14 340.47,350.69 367.83,351.11 ZM 533.76 448.16 C531.37,448.64 529.01,448.98 528.20,448.97 C526.85,448.94 524.68,448.37 522.33,447.51 C526.02,448.52 529.90,448.75 533.76,448.16 ZM 539.93 405.39 C536.00,404.23 530.36,403.89 526.16,404.54 C530.28,403.67 534.78,403.86 539.38,405.20 C539.56,405.26 539.74,405.32 539.93,405.39 ZM 519.06 407.33 C515.95,409.33 513.03,412.22 511.14,415.32 C513.21,411.91 515.92,409.23 519.06,407.33 ZM 327.69 342.16 C326.59,339.08 326.95,335.60 328.96,332.30 C326.97,335.56 326.62,339.07 327.69,342.16 ZM 353.24 325.12 C358.95,324.69 367.04,324.04 375.45,323.34 C367.56,324.00 359.25,324.67 353.24,325.12 ZM 311.07 306.21 C306.42,310.09 302.78,314.74 300.25,319.87 C302.78,314.73 306.42,310.09 311.07,306.21 Z" fill="rgb(35,112,176)"/>
<path d="M 332.64 255.42 C328.83,246.74 328.19,246.10 327.43,246.39 C325.86,246.99 323.94,244.80 314.81,232.00 C310.69,226.23 303.56,216.32 298.97,210.00 C294.39,203.68 287.05,193.32 282.68,187.00 C270.48,169.34 260.91,155.91 257.39,151.50 C255.63,149.30 253.11,145.48 251.80,143.00 C248.67,137.12 245.82,132.84 245.36,133.31 C245.15,133.51 247.73,140.17 251.09,148.09 C253.12,152.91 257.18,162.51 261.72,173.25 C239.70,121.37 230.58,101.25 227.97,98.46 C223.69,93.91 218.18,93.14 178.21,91.51 C157.47,90.67 138.16,89.73 135.30,89.42 C121.77,87.98 114.75,74.96 121.71,64.23 C122.72,62.66 123.50,61.43 124.54,60.46 C128.44,56.84 135.95,57.11 173.01,58.43 L 174.30 58.48 C197.51,59.30 219.20,60.26 222.50,60.61 C236.12,62.04 248.73,68.46 254.22,76.75 C258.23,82.82 263.47,93.66 270.41,110.28 C273.91,118.65 278.92,130.45 281.54,136.50 C291.15,158.70 292.92,162.82 299.78,179.00 C303.62,188.07 308.88,200.23 311.47,206.00 C314.05,211.77 317.51,219.88 319.15,224.00 C320.80,228.12 325.02,238.02 328.54,246.00 C329.66,248.54 331.08,251.81 332.64,255.42 ZM 579.93 300.59 C578.63,299.77 557.51,299.46 496.89,299.35 C451.18,299.26 411.83,298.90 409.44,298.54 C403.10,297.59 404.64,295.37 412.32,294.39 C423.68,292.94 416.42,292.93 402.72,294.06 C412.53,293.04 421.41,292.20 422.50,292.19 C425.99,292.13 436.36,291.21 475.50,287.49 C483.75,286.71 495.45,285.60 501.50,285.03 C507.55,284.46 524.20,282.87 538.50,281.50 C584.64,277.08 587.19,276.86 587.71,277.38 C588.35,278.02 584.52,290.85 581.79,297.24 C581.25,298.50 580.64,299.61 579.93,300.59 ZM 568.92 353.73 L 571.51 357.27 C573.94,360.59 574.20,361.65 573.68,366.06 C573.35,368.82 572.18,372.34 571.08,373.89 C568.49,377.53 564.85,377.98 538.01,377.99 L 517.52 378.00 L 510.51 374.62 C506.65,372.75 497.77,368.65 490.77,365.49 C483.76,362.33 477.52,359.13 476.89,358.37 C476.27,357.62 475.14,357.00 474.38,357.00 C473.62,357.00 473.00,356.55 473.00,356.00 C473.00,355.42 476.31,355.00 480.94,355.00 C485.31,355.00 489.14,354.58 489.46,354.06 C489.82,353.48 491.20,353.52 493.05,354.17 C496.06,355.22 504.89,354.84 516.50,353.16 C520.71,352.55 512.37,352.23 488.50,352.08 C453.98,351.87 427.34,351.70 406.74,351.53 C405.30,351.47 403.74,351.41 402.05,351.37 C415.82,351.45 432.50,351.54 452.76,351.64 C534.78,352.07 560.23,352.08 568.92,353.73 ZM 575.88 367.95 C575.96,367.28 576.00,366.60 576.00,365.91 C576.00,361.76 575.51,360.60 572.38,357.31 L 568.98 353.74 C571.81,354.28 572.84,355.01 573.48,355.99 C573.85,356.56 574.09,357.21 574.48,357.97 C576.07,361.03 576.47,364.58 575.88,367.95 ZM 576.33 303.98 C574.37,305.20 571.96,305.97 569.00,306.37 C571.44,306.04 574.19,305.08 576.33,303.98 ZM 274.91 204.47 C280.59,217.83 285.26,228.69 286.10,230.44 C287.07,232.44 287.87,234.44 287.99,235.11 C287.87,234.44 287.06,232.44 286.10,230.44 C285.06,228.30 280.06,216.67 274.91,204.47 ZM 344.31 282.83 L 343.95 281.97 C341.74,276.74 339.86,272.28 338.24,268.46 C339.89,272.34 341.50,276.13 342.89,279.46 ZM 367.83 351.11 C366.28,351.09 364.81,351.06 363.41,351.04 C365.15,351.06 367.00,351.08 368.97,351.11 ZM 361.99 297.77 C362.49,297.74 363.00,297.70 363.53,297.66 C363.02,297.70 362.53,297.74 362.05,297.77 L 362.04 297.77 Z" fill="rgb(42,169,223)"/>
<path d="M 393.46 283.93 C380.28,285.08 367.17,286.30 364.33,286.62 C363.86,286.68 363.43,286.74 363.04,286.79 C361.97,286.95 361.17,287.07 360.45,286.87 C357.96,286.22 356.43,281.92 348.51,263.00 C344.25,252.82 336.55,234.53 331.39,222.35 C320.53,196.67 319.87,195.00 320.57,195.00 C320.85,195.00 328.61,197.46 337.79,200.46 C356.50,206.57 364.71,208.82 380.00,212.06 C385.77,213.28 390.73,214.60 391.00,215.01 C392.30,216.92 398.37,219.72 400.19,219.24 C401.90,218.79 402.12,219.05 401.55,220.84 C401.16,222.07 401.49,224.15 402.33,225.74 C403.13,227.26 404.61,230.50 405.63,232.94 C406.64,235.38 408.94,239.14 410.74,241.28 C412.53,243.43 414.00,245.64 414.00,246.19 C414.00,246.74 414.90,248.33 416.00,249.73 C417.10,251.13 418.00,253.62 418.00,255.27 C418.00,256.93 418.73,258.81 419.62,259.46 C421.31,260.70 423.96,267.24 423.98,270.24 C423.99,271.20 424.90,272.55 426.00,273.23 C429.14,275.19 428.37,276.83 423.75,278.03 C421.41,278.64 419.03,279.75 418.46,280.48 C417.73,281.42 410.19,282.46 393.46,283.93 Z" fill="rgb(41,160,74)"/>
<path d="M 393.46 283.93 C410.19,282.46 417.73,281.42 418.46,280.48 C419.03,279.75 421.41,278.64 423.75,278.03 C428.37,276.83 429.14,275.19 426.00,273.23 C424.90,272.55 423.99,271.20 423.98,270.24 C423.96,267.24 421.31,260.70 419.62,259.46 C418.73,258.81 418.00,256.93 418.00,255.27 C418.00,253.62 417.10,251.13 416.00,249.73 C414.90,248.33 414.00,246.74 414.00,246.19 C414.00,245.64 412.53,243.43 410.74,241.28 C408.94,239.14 406.64,235.38 405.63,232.94 C404.61,230.50 403.13,227.26 402.33,225.74 C401.49,224.15 401.16,222.07 401.55,220.84 C402.12,219.05 401.90,218.79 400.19,219.24 C398.37,219.72 392.30,216.92 391.00,215.01 C390.73,214.60 385.77,213.28 380.00,212.06 C378.06,211.65 376.24,211.25 374.50,210.87 C383.19,212.71 392.14,214.09 404.00,215.59 C414.73,216.95 429.35,218.30 436.50,218.60 C443.65,218.91 451.81,219.59 454.64,220.12 C459.75,221.09 463.75,223.98 462.59,225.86 C462.25,226.40 464.03,228.53 466.53,230.58 C469.16,232.74 470.87,234.88 470.58,235.66 C470.29,236.40 470.45,237.00 470.92,237.00 C471.39,237.00 472.47,238.46 473.32,240.25 C474.18,242.04 476.72,245.30 478.98,247.50 C482.12,250.55 483.59,253.14 485.19,258.41 C487.22,265.09 487.23,265.36 485.45,266.66 C484.44,267.40 482.85,268.00 481.90,268.00 C480.96,268.00 477.27,269.58 473.70,271.50 C470.14,273.42 466.50,275.00 465.61,275.00 C464.73,275.00 464.00,275.41 464.00,275.91 C464.00,277.42 452.64,278.72 393.48,283.99 C383.45,284.88 374.37,285.69 368.10,286.24 C373.58,285.71 383.50,284.80 393.46,283.93 ZM 341.86 434.18 C342.10,437.15 342.77,438.21 344.64,440.21 C344.75,440.33 344.86,440.44 344.97,440.55 C339.58,435.59 336.02,428.51 336.01,420.43 C336.00,411.88 338.45,405.46 343.69,400.37 C349.25,394.96 352.00,394.91 352.00,400.21 C352.00,402.98 352.42,404.00 353.56,404.00 C354.49,404.00 354.83,404.47 354.40,405.16 C353.90,405.98 354.39,406.10 356.09,405.58 C357.01,405.31 357.92,405.07 358.83,404.89 C354.85,406.06 351.05,408.31 348.45,411.19 C344.44,415.63 342.59,419.17 341.97,424.38 L 341.93 424.50 C341.44,426.15 341.31,429.83 341.65,432.68 C341.71,433.22 341.78,433.72 341.86,434.18 ZM 519.06 407.33 C515.92,409.23 513.21,411.91 511.14,415.32 C508.44,419.76 506.88,428.54 507.76,434.39 C508.26,437.67 508.90,439.23 510.79,441.05 C509.00,439.49 507.44,437.76 506.20,435.93 C504.38,433.26 504.03,431.77 504.54,428.78 C505.03,425.85 504.82,424.87 503.59,424.40 C501.59,423.63 501.50,416.15 503.43,410.75 C505.25,405.63 509.71,400.00 511.93,400.00 C513.03,400.00 514.27,401.23 515.05,403.11 C516.27,406.06 516.54,406.18 520.42,405.55 C521.67,405.35 522.86,405.17 523.98,405.01 C522.37,405.47 520.69,406.28 519.06,407.33 ZM 360.55 286.90 C359.80,286.97 359.38,287.00 359.35,287.00 C359.08,287.00 358.37,285.77 356.95,282.67 C358.38,285.52 359.31,286.58 360.45,286.87 C360.48,286.88 360.52,286.89 360.55,286.90 ZM 372.18 405.53 C376.24,406.88 379.91,409.32 382.97,412.79 C380.23,409.68 376.25,407.08 372.18,405.53 ZM 543.78 407.42 C545.53,408.62 547.28,410.20 549.25,412.21 C547.46,410.50 545.48,408.83 543.65,407.54 C543.72,407.50 543.76,407.46 543.78,407.42 ZM 374.54 445.63 C368.89,448.27 362.88,448.62 357.33,447.24 C363.04,448.55 369.24,448.10 374.54,445.63 ZM 539.93 405.39 C539.74,405.32 539.56,405.26 539.38,405.20 C538.35,404.90 537.31,404.66 536.29,404.47 C537.69,404.66 538.96,404.99 540.17,405.46 C540.09,405.44 540.01,405.42 539.93,405.39 ZM 533.76 448.16 C533.80,448.16 533.84,448.15 533.87,448.15 C532.29,448.48 531.06,448.70 529.98,448.81 C531.04,448.66 532.40,448.43 533.76,448.16 Z" fill="rgb(74,170,74)"/>
<path d="M 429.20 218.14 C435.29,218.35 442.75,218.38 454.00,218.36 C470.77,218.34 488.90,217.82 494.28,217.22 C503.91,216.14 504.13,216.16 509.17,218.78 C512.53,220.52 514.74,222.47 515.62,224.47 C516.36,226.13 519.00,229.72 521.48,232.44 C523.97,235.15 526.00,237.95 526.00,238.66 C526.00,239.37 527.35,240.65 529.00,241.50 C530.65,242.35 532.00,243.40 532.00,243.83 C532.00,244.26 533.52,246.27 535.39,248.31 C541.02,254.46 542.38,256.97 540.82,258.33 C540.08,258.97 539.65,259.41 539.86,259.30 C540.07,259.18 541.90,260.87 543.93,263.05 C545.96,265.22 548.15,267.00 548.81,267.00 C550.73,267.00 550.18,269.00 548.25,269.03 C547.29,269.05 543.35,269.47 539.50,269.97 C535.65,270.47 521.92,271.82 509.00,272.97 C488.16,274.82 470.92,276.46 453.34,278.25 C461.62,277.25 464.00,276.60 464.00,275.91 C464.00,275.41 464.73,275.00 465.61,275.00 C466.50,275.00 470.14,273.42 473.70,271.50 C477.27,269.58 480.96,268.00 481.90,268.00 C482.85,268.00 484.44,267.40 485.45,266.66 C487.23,265.36 487.22,265.09 485.19,258.41 C483.59,253.14 482.12,250.55 478.98,247.50 C476.72,245.30 474.18,242.04 473.32,240.25 C472.47,238.46 471.39,237.00 470.92,237.00 C470.45,237.00 470.29,236.40 470.58,235.66 C470.87,234.88 469.16,232.74 466.53,230.58 C464.03,228.53 462.25,226.40 462.59,225.86 C463.75,223.98 459.75,221.09 454.64,220.12 C451.81,219.59 443.65,218.91 436.50,218.60 C434.55,218.52 432.04,218.36 429.20,218.14 ZM 354.38 405.20 C354.39,405.19 354.39,405.17 354.40,405.16 C354.83,404.47 354.49,404.00 353.56,404.00 C352.42,404.00 352.00,402.98 352.00,400.21 C352.00,396.55 350.69,395.44 348.04,396.89 C354.89,392.68 362.99,391.95 370.50,394.95 L 373.50 396.16 L 371.05 398.15 C369.04,399.79 368.86,400.30 370.05,401.05 C370.85,401.56 372.04,401.98 372.69,401.98 C373.35,401.99 374.13,402.39 374.42,402.87 C374.72,403.36 372.96,403.32 370.51,402.80 C365.67,401.77 355.65,403.26 354.38,405.20 ZM 508.54 402.27 C509.05,401.66 509.61,401.04 510.21,400.39 C514.46,395.78 521.03,393.00 527.68,393.00 C530.95,393.00 532.04,394.24 529.92,395.55 C529.32,395.92 529.10,397.28 529.43,398.57 C529.94,400.61 529.53,401.06 526.26,401.98 C524.19,402.56 521.60,403.76 520.50,404.64 C519.84,405.17 519.40,405.53 519.21,405.74 C516.47,406.12 516.13,405.72 515.05,403.11 C514.27,401.23 513.03,400.00 511.93,400.00 C511.05,400.00 509.82,400.88 508.54,402.27 ZM 504.94 433.76 C503.07,430.03 502.11,425.74 502.13,420.99 C502.32,422.79 502.81,424.10 503.59,424.40 C504.82,424.87 505.03,425.85 504.54,428.78 C504.19,430.86 504.25,432.22 504.94,433.76 ZM 518.16 445.98 C512.59,443.48 508.38,439.78 505.67,435.13 C505.83,435.39 506.01,435.65 506.20,435.93 C507.44,437.76 509.00,439.49 510.79,441.05 C511.20,441.44 511.67,441.84 512.20,442.28 C514.06,443.78 516.06,445.02 518.16,445.98 ZM 346.44 397.96 C345.61,398.59 344.70,399.39 343.69,400.37 C341.65,402.35 340.03,404.53 338.82,406.97 C340.41,403.60 342.71,400.79 345.75,398.46 C345.98,398.29 346.21,398.12 346.44,397.96 ZM 339.95 434.44 C337.94,431.34 336.78,428.15 336.32,424.49 C336.87,428.11 338.14,431.46 339.95,434.44 ZM 522.33 405.25 C524.25,404.79 526.05,404.46 527.77,404.25 C527.23,404.33 526.69,404.43 526.16,404.54 C525.47,404.64 524.83,404.78 524.23,404.94 C524.15,404.96 524.07,404.98 523.98,405.01 C523.45,405.08 522.90,405.16 522.33,405.25 ZM 372.71 446.40 C367.42,448.40 361.76,448.55 356.45,447.03 L 356.45 447.03 C356.74,447.10 357.03,447.17 357.33,447.24 C362.28,448.48 367.60,448.32 372.71,446.40 ZM 523.62 447.96 C523.21,447.84 522.78,447.70 522.32,447.56 C521.51,447.31 520.71,447.03 519.94,446.73 C520.73,447.03 521.52,447.29 522.33,447.51 C522.77,447.67 523.20,447.82 523.62,447.96 ZM 504.57 408.11 C504.97,407.29 505.43,406.48 505.97,405.66 C505.47,406.44 504.99,407.27 504.57,408.11 ZM 354.23 405.73 C354.35,405.98 354.96,405.93 356.09,405.58 C354.93,405.94 354.33,405.99 354.23,405.73 Z" fill="rgb(103,178,68)"/>
<path d="M 418.90 217.24 C413.81,216.74 408.55,216.17 404.00,215.59 C392.14,214.09 383.19,212.71 374.50,210.87 C362.46,208.19 354.13,205.80 337.79,200.46 C328.61,197.46 320.85,195.00 320.57,195.00 C320.05,195.00 320.29,195.95 325.08,207.37 C322.47,201.24 320.62,196.90 320.00,195.50 C319.03,193.30 315.30,184.98 311.73,177.00 C304.32,160.46 291.96,132.33 289.65,126.75 L 288.10 123.00 L 325.94 123.00 C360.53,123.00 363.95,123.15 365.82,124.75 C367.45,126.14 368.06,128.42 368.82,135.83 C369.34,140.97 369.56,145.98 369.30,146.97 C368.74,149.09 371.57,155.00 373.13,155.00 C373.78,155.00 373.97,155.97 373.62,157.40 C372.99,159.89 374.33,161.00 377.97,161.00 C378.97,161.00 380.06,161.70 380.39,162.56 C380.72,163.42 381.40,163.87 381.90,163.56 C384.25,162.11 398.00,170.62 398.00,173.53 C398.00,174.21 399.81,176.40 402.02,178.40 C405.09,181.18 405.90,182.55 405.48,184.26 C404.85,186.84 408.30,191.07 413.03,193.52 C415.64,194.87 416.00,195.58 416.00,199.47 C416.00,201.90 415.54,204.16 414.98,204.51 C414.42,204.86 414.23,205.56 414.55,206.08 C414.87,206.60 413.74,208.19 412.04,209.62 C408.17,212.87 408.97,214.06 416.76,216.62 C417.48,216.85 418.17,217.06 418.90,217.24 ZM 372.18 405.53 C369.61,404.56 367.00,404.00 364.64,404.00 C362.74,404.00 360.77,404.31 358.83,404.89 C357.92,405.07 357.01,405.31 356.09,405.58 C354.96,405.93 354.35,405.98 354.23,405.73 C354.18,405.61 354.24,405.44 354.38,405.20 C355.65,403.26 365.67,401.77 370.51,402.80 C371.74,403.06 372.81,403.20 373.52,403.21 C375.51,405.00 378.59,408.10 381.58,411.32 C378.82,408.62 375.64,406.68 372.18,405.53 ZM 522.33 405.25 C521.71,405.35 521.07,405.45 520.42,405.55 C519.97,405.63 519.57,405.69 519.21,405.74 C519.40,405.53 519.84,405.17 520.50,404.64 C521.60,403.76 524.19,402.56 526.26,401.98 C529.14,401.16 529.80,400.72 529.57,399.23 C530.48,401.21 533.27,403.09 537.64,404.54 C538.30,404.76 538.92,404.99 539.51,405.22 C538.50,404.88 537.44,404.63 536.29,404.47 C533.35,403.93 530.49,403.87 527.77,404.25 C526.05,404.46 524.25,404.79 522.33,405.25 ZM 530.86 393.83 C530.47,393.33 529.37,393.00 527.68,393.00 C530.01,393.00 530.93,393.08 530.86,393.83 ZM 374.54 445.63 C378.52,443.78 382.00,440.72 384.55,437.09 C381.95,440.88 378.59,443.75 374.54,445.63 ZM 529.28 397.31 C529.29,396.49 529.52,395.80 529.92,395.55 C529.99,395.50 530.06,395.46 530.13,395.41 C530.04,395.57 529.93,395.74 529.82,395.92 C529.53,396.38 529.35,396.85 529.28,397.31 ZM 388.38 419.56 C388.00,418.77 387.37,417.90 386.36,416.69 C386.86,417.27 387.32,417.83 387.75,418.36 C388.00,418.67 388.21,419.08 388.38,419.56 ZM 371.78 401.82 C371.20,401.65 370.55,401.37 370.05,401.05 C370.00,401.02 369.95,400.99 369.91,400.96 C370.29,401.18 370.84,401.42 371.55,401.70 C371.62,401.73 371.69,401.77 371.78,401.82 ZM 387.20 432.34 C387.36,431.98 387.50,431.61 387.64,431.24 C387.50,431.62 387.36,431.99 387.20,432.34 Z" fill="rgb(113,192,125)"/>
<path d="M 482.18 217.89 C504.30,216.38 526.06,213.14 547.00,208.24 C557.74,205.73 565.58,204.50 572.52,204.25 C581.85,203.91 582.74,204.04 585.25,206.20 C587.88,208.46 588.20,210.92 586.50,215.76 C586.25,216.45 585.78,219.83 585.43,223.26 C584.69,230.80 582.35,239.46 580.70,240.83 C579.42,241.89 579.09,256.72 580.31,258.69 C580.68,259.29 580.42,260.23 579.74,260.78 C577.47,262.63 570.79,265.00 567.85,265.00 C566.25,265.00 564.70,265.62 564.40,266.39 C564.05,267.32 561.34,267.99 556.19,268.43 C551.96,268.79 542.42,269.73 535.00,270.52 C527.58,271.31 513.40,272.65 503.50,273.51 C487.49,274.89 470.85,276.46 453.34,278.25 C470.92,276.46 488.16,274.82 509.00,272.97 C521.92,271.82 535.65,270.47 539.50,269.97 C543.35,269.47 547.29,269.05 548.25,269.03 C550.18,269.00 550.73,267.00 548.81,267.00 C548.15,267.00 545.96,265.22 543.93,263.05 C541.90,260.87 540.07,259.18 539.86,259.30 C539.65,259.41 540.08,258.97 540.82,258.33 C542.38,256.97 541.02,254.46 535.39,248.31 C533.52,246.27 532.00,244.26 532.00,243.83 C532.00,243.40 530.65,242.35 529.00,241.50 C527.35,240.65 526.00,239.37 526.00,238.66 C526.00,237.95 523.97,235.15 521.48,232.44 C519.00,229.72 516.36,226.13 515.62,224.47 C514.74,222.47 512.53,220.52 509.17,218.78 C504.13,216.16 503.91,216.14 494.28,217.22 C492.07,217.47 487.71,217.70 482.18,217.89 ZM 598.12 235.25 C596.79,238.65 593.44,238.95 592.40,235.75 C591.43,232.77 591.80,226.34 593.18,222.00 C594.23,218.70 600.14,212.00 602.00,212.00 C603.26,212.00 603.70,215.09 602.91,218.50 C601.67,223.84 599.22,232.43 598.12,235.25 ZM 371.78 401.82 C371.69,401.77 371.62,401.73 371.55,401.70 C370.84,401.42 370.29,401.18 369.91,400.96 C368.88,400.25 369.12,399.72 371.05,398.15 L 373.40 396.24 C379.50,399.24 386.00,404.84 386.00,407.51 C386.00,410.46 383.05,410.20 378.77,406.90 C374.88,403.89 374.91,404.05 380.15,409.80 C377.64,407.15 375.19,404.71 373.52,403.21 C374.21,403.22 374.57,403.11 374.42,402.87 C374.13,402.39 373.35,401.99 372.69,401.98 C372.44,401.98 372.12,401.92 371.78,401.82 ZM 530.86 393.83 C530.86,393.76 530.86,393.70 530.85,393.64 C531.68,393.93 532.42,394.33 533.06,394.84 C535.77,397.04 535.11,400.00 531.91,400.00 C530.97,400.00 530.47,400.16 530.36,400.43 C530.02,400.04 529.75,399.64 529.57,399.23 C529.54,399.03 529.49,398.81 529.43,398.57 C529.32,398.14 529.27,397.71 529.28,397.31 C529.35,396.85 529.53,396.38 529.82,395.92 C529.93,395.74 530.04,395.57 530.13,395.41 C530.98,394.83 531.19,394.26 530.86,393.83 ZM 580.00 210.56 C580.00,211.42 580.45,211.84 581.00,211.50 C581.55,211.16 582.00,210.46 582.00,209.94 C582.00,209.42 581.55,209.00 581.00,209.00 C580.45,209.00 580.00,209.70 580.00,210.56 ZM 356.06 393.66 C353.28,394.25 350.57,395.34 348.04,396.89 C347.55,397.16 347.02,397.52 346.44,397.96 C346.21,398.12 345.98,398.29 345.75,398.46 C343.62,400.09 341.85,401.96 340.43,404.10 C344.01,398.52 349.51,394.82 356.06,393.66 ZM 418.90 217.24 C418.17,217.06 417.48,216.85 416.76,216.62 C412.14,215.10 409.98,214.07 409.79,212.80 C410.01,214.01 412.09,215.01 416.50,216.50 C417.48,216.83 418.65,217.11 420.11,217.35 C419.71,217.32 419.30,217.28 418.90,217.24 ZM 519.10 394.54 C521.71,393.55 524.40,393.01 526.81,393.02 C524.17,393.11 521.55,393.64 519.10,394.54 ZM 537.97 404.65 C538.52,404.84 539.04,405.03 539.55,405.24 L 539.51 405.22 C539.02,405.03 538.51,404.84 537.97,404.65 Z" fill="rgb(134,190,55)"/>
<path d="M 558.30 268.22 C562.09,267.79 564.10,267.18 564.40,266.39 C564.70,265.62 566.25,265.00 567.85,265.00 C570.79,265.00 577.47,262.63 579.74,260.78 C580.42,260.23 580.68,259.29 580.31,258.69 C579.09,256.72 579.42,241.89 580.70,240.83 C582.35,239.46 584.69,230.80 585.43,223.26 C585.78,219.83 586.25,216.45 586.50,215.76 C588.20,210.92 587.88,208.46 585.25,206.20 C582.74,204.04 581.85,203.91 572.52,204.25 C566.32,204.47 559.41,205.47 550.35,207.48 C550.80,207.31 551.18,207.15 551.50,207.00 C552.60,206.47 557.33,204.88 562.00,203.47 C566.67,202.07 575.55,199.26 581.73,197.24 C588.86,194.90 593.28,193.91 593.83,194.53 C594.35,195.10 593.72,199.46 592.34,205.00 C591.04,210.23 589.33,217.20 588.56,220.50 C587.78,223.80 586.24,229.82 585.14,233.89 C581.57,247.02 584.13,241.42 593.54,215.50 C601.35,194.00 603.59,189.60 607.96,187.15 C612.25,184.73 615.55,184.38 616.27,186.27 C616.54,186.96 615.19,192.70 613.28,199.02 C611.37,205.33 608.61,214.53 607.15,219.46 C605.69,224.39 601.80,236.54 598.50,246.46 L 592.50 264.50 L 588.00 265.20 C585.53,265.58 575.62,266.62 566.00,267.50 C563.64,267.72 561.02,267.96 558.30,268.22 ZM 598.12 235.25 C599.22,232.43 601.67,223.84 602.91,218.50 C603.70,215.09 603.26,212.00 602.00,212.00 C600.14,212.00 594.23,218.70 593.18,222.00 C591.80,226.34 591.43,232.77 592.40,235.75 C593.44,238.95 596.79,238.65 598.12,235.25 ZM 532.76 394.62 C533.36,394.89 533.94,395.19 534.50,395.54 C536.70,396.88 539.51,398.51 540.75,399.15 C543.39,400.52 543.82,402.56 541.25,401.49 C540.29,401.09 537.25,400.52 534.50,400.23 C533.40,400.11 532.55,400.03 531.91,400.00 C535.11,400.00 535.77,397.04 533.06,394.84 C532.96,394.77 532.86,394.69 532.76,394.62 ZM 580.00 210.56 C580.00,209.70 580.45,209.00 581.00,209.00 C581.55,209.00 582.00,209.42 582.00,209.94 C582.00,210.46 581.55,211.16 581.00,211.50 C580.45,211.84 580.00,211.42 580.00,210.56 ZM 490.14 217.27 C499.02,216.44 508.81,215.23 517.96,213.89 C508.78,215.32 499.50,216.45 490.14,217.27 ZM 519.10 394.54 C515.68,395.81 512.58,397.81 510.21,400.39 C513.76,396.54 518.33,394.15 522.93,393.43 C521.67,393.68 520.38,394.06 519.10,394.54 ZM 535.00 270.53 C527.58,271.31 513.40,272.65 503.50,273.51 C513.40,272.65 527.58,271.31 535.00,270.52 C542.04,269.77 550.98,268.89 555.49,268.49 C547.91,269.22 539.98,270.00 535.00,270.53 ZM 421.72 217.50 C421.18,217.46 420.65,217.41 420.11,217.35 C418.65,217.11 417.48,216.83 416.50,216.50 C417.63,216.87 419.41,217.21 421.72,217.50 Z" fill="rgb(155,195,62)"/>
<path d="M 429.20 218.14 C426.88,217.96 424.34,217.75 421.72,217.50 C419.41,217.21 417.63,216.87 416.50,216.50 C412.09,215.01 410.01,214.01 409.79,212.80 C409.66,211.93 410.46,210.95 412.04,209.62 C413.74,208.19 414.87,206.60 414.55,206.08 C414.23,205.56 414.42,204.86 414.98,204.51 C415.54,204.16 416.00,201.90 416.00,199.47 C416.00,195.58 415.64,194.87 413.03,193.52 C408.30,191.07 404.85,186.84 405.48,184.26 C405.90,182.55 405.09,181.18 402.02,178.40 C399.81,176.40 398.00,174.21 398.00,173.53 C398.00,170.62 384.25,162.11 381.90,163.56 C381.40,163.87 380.72,163.42 380.39,162.56 C380.06,161.70 378.97,161.00 377.97,161.00 C374.33,161.00 372.99,159.89 373.62,157.40 C373.97,155.97 373.78,155.00 373.13,155.00 C371.57,155.00 368.74,149.09 369.30,146.97 C369.56,145.98 369.34,140.97 368.82,135.83 C368.06,128.42 367.45,126.14 365.82,124.75 C363.95,123.15 360.53,123.00 325.94,123.00 L 289.81 123.00 L 295.83 122.43 C300.05,122.03 343.28,122.20 391.90,122.79 C462.54,123.65 480.46,124.13 481.11,125.17 C481.58,125.93 483.92,126.51 486.71,126.55 C495.40,126.69 502.00,128.13 503.07,130.13 C503.98,131.83 503.65,132.00 499.62,132.00 C497.17,132.00 495.02,131.55 494.83,131.00 C494.61,130.33 493.34,130.33 491.01,131.00 C489.08,131.55 486.30,132.00 484.81,132.00 C483.32,132.00 481.69,132.73 481.19,133.63 C480.36,135.12 478.20,135.16 456.89,134.13 C407.54,131.73 407.93,133.58 457.50,137.02 C475.10,138.24 490.40,139.72 491.50,140.32 C493.47,141.39 494.02,141.54 496.99,141.85 C497.90,141.94 497.23,142.87 495.25,144.25 C492.55,146.14 492.03,147.14 492.00,150.50 C491.99,152.70 491.71,155.48 491.39,156.67 C490.80,158.87 494.26,162.93 500.44,167.28 C501.83,168.26 503.48,170.06 504.11,171.28 C505.05,173.11 505.01,173.28 503.92,172.25 C501.90,170.34 500.83,170.76 502.19,172.94 C502.86,174.00 503.81,174.62 504.31,174.31 C505.58,173.52 506.97,176.00 506.98,179.08 C506.99,180.49 508.08,182.67 509.40,183.90 C511.85,186.20 512.76,189.03 513.64,197.00 C514.03,200.53 513.60,202.51 511.63,206.18 C508.36,212.30 509.52,213.41 518.80,213.11 C521.63,213.02 527.46,212.20 533.42,211.16 C528.31,212.17 523.15,213.08 517.96,213.89 C508.81,215.23 499.02,216.44 490.14,217.27 C487.49,217.50 484.84,217.71 482.18,217.89 C474.25,218.16 463.89,218.35 454.00,218.36 C442.75,218.38 435.29,218.35 429.20,218.14 ZM 543.78 407.42 C543.90,407.14 543.16,406.61 541.39,405.89 C541.01,405.74 540.60,405.60 540.17,405.46 C539.96,405.38 539.76,405.31 539.55,405.24 C539.04,405.03 538.52,404.84 537.97,404.65 C537.86,404.62 537.75,404.58 537.64,404.54 C534.17,403.39 531.69,401.97 530.36,400.43 C530.47,400.16 530.97,400.00 531.90,400.00 L 531.91 400.00 C532.55,400.03 533.40,400.11 534.50,400.23 C537.25,400.52 540.29,401.09 541.25,401.49 C543.82,402.56 543.39,400.52 540.75,399.15 C539.51,398.51 536.70,396.88 534.50,395.54 C533.94,395.19 533.36,394.89 532.76,394.62 C532.20,394.21 531.56,393.89 530.85,393.64 C530.75,393.07 529.80,393.00 527.68,393.00 C527.39,393.00 527.10,393.01 526.82,393.02 C534.93,392.49 543.43,395.31 548.75,401.37 C554.54,407.97 556.44,412.72 556.39,420.50 C556.38,421.18 556.36,421.85 556.32,422.51 C556.25,422.33 556.15,422.22 556.01,422.17 C555.45,421.98 555.00,420.98 555.00,419.94 C555.00,418.45 552.43,415.26 549.25,412.21 C547.28,410.20 545.53,408.62 543.78,407.42 ZM 388.38 419.56 C388.21,419.08 388.00,418.67 387.75,418.36 C387.32,417.83 386.86,417.27 386.36,416.69 C385.53,415.68 384.42,414.44 382.97,412.79 C382.52,412.28 382.05,411.79 381.58,411.32 C381.10,410.81 380.63,410.30 380.15,409.80 C374.91,404.05 374.88,403.89 378.77,406.90 C383.05,410.20 386.00,410.46 386.00,407.51 C386.00,407.17 385.89,406.78 385.70,406.36 C385.97,406.73 386.22,407.11 386.47,407.50 C388.23,410.25 389.10,416.41 388.96,422.17 C388.94,421.56 388.88,421.04 388.75,420.54 C388.66,420.21 388.54,419.89 388.38,419.56 ZM 551.61 437.02 C553.13,434.72 554.59,431.24 555.50,428.23 C553.71,435.77 549.25,441.54 542.38,445.07 C546.19,442.98 549.56,440.11 551.61,437.02 ZM 504.94 433.76 C505.13,434.20 505.38,434.64 505.67,435.13 C506.43,436.43 507.31,437.66 508.30,438.81 C504.14,434.09 502.07,428.11 502.13,420.96 L 502.13 420.99 C502.11,425.74 503.07,430.03 504.94,433.76 ZM 373.43 396.21 C375.81,397.35 378.08,398.79 380.13,400.47 C378.08,398.88 375.71,397.37 373.40,396.24 ZM 569.62 201.12 C566.68,202.04 563.97,202.88 562.00,203.47 C558.29,204.59 554.54,205.82 552.61,206.55 C554.34,205.87 557.79,204.72 561.50,203.62 C563.63,202.98 566.52,202.09 569.62,201.12 ZM 518.16 445.98 C518.75,446.25 519.34,446.50 519.94,446.73 C520.57,446.97 521.21,447.20 521.87,447.42 C520.50,447.00 519.13,446.46 517.76,445.80 C517.89,445.86 518.02,445.92 518.16,445.98 ZM 356.06 393.66 C355.82,393.70 355.58,393.75 355.34,393.80 C355.82,393.69 356.31,393.60 356.80,393.52 C356.55,393.56 356.31,393.61 356.06,393.66 Z" fill="rgb(148,203,117)"/>
<path d="M 569.62 201.12 C566.52,202.09 563.63,202.98 561.50,203.62 C557.79,204.72 554.34,205.87 552.61,206.55 C552.11,206.74 551.73,206.89 551.50,207.00 C551.18,207.15 550.80,207.31 550.35,207.48 C549.26,207.72 548.15,207.97 547.00,208.24 C542.51,209.29 537.98,210.27 533.42,211.16 C527.46,212.20 521.63,213.02 518.80,213.11 C509.52,213.41 508.36,212.30 511.63,206.18 C513.60,202.51 514.03,200.53 513.64,197.00 C512.76,189.03 511.85,186.20 509.40,183.90 C508.08,182.67 506.99,180.49 506.98,179.08 C506.97,176.00 505.58,173.52 504.31,174.31 C503.81,174.62 502.86,174.00 502.19,172.94 C500.83,170.76 501.90,170.34 503.92,172.25 C505.01,173.28 505.05,173.11 504.11,171.28 C503.48,170.06 501.83,168.26 500.44,167.28 C494.26,162.93 490.80,158.87 491.39,156.67 C491.71,155.48 491.99,152.70 492.00,150.50 C492.03,147.14 492.55,146.14 495.25,144.25 C497.23,142.87 497.90,141.94 496.99,141.85 C494.02,141.54 493.47,141.39 491.50,140.32 C490.40,139.72 475.10,138.24 457.50,137.02 C407.93,133.58 407.54,131.73 456.89,134.13 C459.55,134.26 461.91,134.37 464.01,134.46 C442.86,134.41 428.11,134.44 428.27,134.60 C428.44,134.78 442.07,135.84 458.54,136.96 C475.02,138.09 497.50,139.67 508.50,140.49 C519.50,141.31 535.47,142.44 544.00,142.99 C552.53,143.55 569.29,144.68 581.26,145.50 C593.23,146.33 603.75,147.00 604.63,147.00 C606.63,147.00 606.62,147.09 600.25,172.50 C598.00,181.49 595.43,191.97 593.18,201.36 C593.95,197.63 594.23,194.96 593.83,194.53 C593.28,193.91 588.86,194.90 581.73,197.24 C578.15,198.41 573.67,199.84 569.62,201.12 ZM 441.21 123.47 C487.67,124.05 537.12,124.62 563.08,124.89 L 623.66 125.50 L 627.25 128.24 C629.25,129.76 631.35,132.54 632.00,134.50 C633.08,137.77 632.42,140.28 622.59,170.26 C619.05,181.04 615.40,192.39 612.70,200.92 C612.90,200.26 613.09,199.63 613.28,199.02 C615.19,192.70 616.54,186.96 616.27,186.27 C615.55,184.38 612.25,184.73 607.96,187.15 C605.14,188.73 603.21,191.12 600.10,198.38 C602.92,191.04 606.44,181.78 608.99,175.00 C612.40,165.93 616.28,156.21 617.60,153.40 C620.84,146.52 620.73,142.57 617.17,139.02 C614.99,136.84 613.09,136.06 608.92,135.62 C605.31,135.25 532.02,134.71 479.92,134.51 C480.65,134.32 480.97,134.02 481.19,133.63 C481.69,132.73 483.32,132.00 484.81,132.00 C486.30,132.00 489.08,131.55 491.01,131.00 C493.34,130.33 494.61,130.33 494.83,131.00 C495.02,131.55 497.17,132.00 499.62,132.00 C503.65,132.00 503.98,131.83 503.07,130.13 C502.00,128.13 495.40,126.69 486.71,126.55 C483.92,126.51 481.58,125.93 481.11,125.17 C480.65,124.44 471.54,123.98 441.21,123.47 ZM 587.48 225.88 C586.48,230.72 588.45,229.05 590.58,223.24 C591.17,221.60 592.64,217.75 594.35,213.27 C594.09,213.99 593.82,214.74 593.54,215.50 C584.13,241.42 581.57,247.02 585.14,233.89 C586.24,229.82 587.78,223.80 588.56,220.50 C589.16,217.92 590.33,213.11 591.44,208.64 C589.53,216.66 588.05,223.11 587.48,225.88 ZM 605.92 223.48 C602.89,233.74 601.08,239.33 597.27,250.50 L 592.50 264.50 L 598.50 246.46 C601.10,238.64 604.07,229.44 605.92,223.48 Z" fill="rgb(184,212,117)"/>
<path d="M 464.01 134.46 C474.27,134.93 478.22,134.97 479.92,134.51 C532.02,134.71 605.31,135.25 608.92,135.62 C609.79,135.72 610.57,135.82 611.27,135.95 C605.15,135.28 508.72,134.66 456.25,134.97 C453.36,134.99 451.00,135.38 451.00,135.85 C451.00,136.11 453.89,136.53 458.39,136.95 C441.98,135.83 428.44,134.78 428.27,134.60 C428.11,134.44 442.86,134.41 464.01,134.46 ZM 587.48 225.88 C588.05,223.11 589.53,216.66 591.44,208.64 C591.75,207.38 592.05,206.15 592.34,205.00 C592.66,203.71 592.94,202.49 593.18,201.36 C593.83,198.66 594.50,195.87 595.18,193.05 C593.68,199.68 592.61,204.81 592.37,206.75 C591.73,211.94 592.63,213.49 594.70,210.75 C595.21,210.07 596.47,207.27 598.37,202.61 C597.21,205.54 595.90,209.05 594.35,213.27 C592.64,217.75 591.17,221.60 590.58,223.24 C588.45,229.05 586.48,230.72 587.48,225.88 ZM 483.53 138.70 C492.52,139.29 502.29,139.98 509.00,140.50 C513.02,140.81 517.89,141.17 522.84,141.53 C517.79,141.17 512.77,140.81 508.50,140.49 C502.59,140.05 493.36,139.39 483.53,138.70 ZM 605.73 147.54 C605.85,147.57 605.92,147.59 605.94,147.61 C606.12,147.79 605.71,150.12 604.96,153.28 C605.74,149.77 605.93,148.22 605.73,147.54 ZM 611.85 136.07 C614.09,136.57 615.52,137.39 617.07,138.92 C615.69,137.61 613.89,136.60 611.85,136.07 ZM 619.84 146.63 C619.59,148.55 618.84,150.76 617.60,153.40 C618.62,151.23 619.50,148.53 619.84,146.63 ZM 552.17 143.54 C563.22,144.26 572.64,144.90 580.36,145.44 C571.66,144.85 560.69,144.10 552.17,143.54 ZM 599.51 199.80 C600.06,198.41 600.65,196.90 601.29,195.28 C600.88,196.34 600.49,197.38 600.10,198.38 C599.91,198.83 599.71,199.30 599.51,199.80 Z" fill="rgb(220,201,202)"/>
<path d="M 795.00 359.57 C790.64,360.73 783.57,361.42 773.50,361.66 C760.12,361.97 757.53,361.74 749.50,359.59 C732.92,355.15 723.75,349.77 712.65,337.96 C703.99,328.76 697.43,316.56 693.83,302.94 C691.63,294.65 691.59,293.24 691.25,223.41 C690.96,162.72 691.12,152.14 692.34,151.13 C693.34,150.30 698.27,150.03 708.64,150.22 L 723.50 150.50 L 724.12 218.00 C724.81,292.38 724.89,293.38 731.18,305.19 C734.65,311.70 743.88,320.88 750.19,324.10 C763.57,330.92 784.76,329.86 797.67,321.71 C802.96,318.37 810.58,309.75 813.74,303.55 C819.50,292.20 819.36,294.11 819.95,220.00 L 820.50 151.50 L 836.42 151.22 C848.49,151.01 852.55,151.26 853.16,152.22 C854.42,154.22 854.18,275.97 852.89,286.50 C848.33,323.76 826.65,351.13 795.00,359.57 ZM 966.06 360.88 C956.40,363.31 940.19,363.62 931.00,361.56 C911.22,357.12 892.66,343.29 883.77,326.38 C869.51,299.25 874.05,264.12 894.49,243.38 C905.02,232.69 914.45,227.37 930.00,223.35 C939.03,221.01 958.00,221.03 968.50,223.38 C977.22,225.33 991.46,231.64 994.36,234.84 C996.13,236.80 996.04,237.08 990.34,246.47 C987.13,251.76 983.55,257.28 982.40,258.73 L 980.30 261.36 L 975.90 258.82 C967.76,254.11 961.36,252.56 949.99,252.57 C936.24,252.58 929.25,255.02 920.89,262.76 C912.62,270.42 908.77,278.51 908.20,289.44 C906.41,323.45 938.66,342.89 970.61,327.06 C975.12,324.83 979.30,323.00 979.90,323.00 C981.04,323.00 997.00,342.64 997.00,344.04 C997.00,345.78 988.13,352.31 981.50,355.45 C977.65,357.27 970.70,359.71 966.06,360.88 Z" fill="rgb(239,86,42)"/>
<path d="M 0.00 249.00 L 0.00 0.00 L 1000.00 0.00 L 2000.00 0.00 L 2000.00 249.00 L 2000.00 498.00 L 1000.00 498.00 L 0.00 498.00 L 0.00 249.00 ZM 541.70 445.41 C551.19,440.83 556.31,432.15 556.39,420.50 C556.44,412.72 554.54,407.97 548.75,401.37 C539.27,390.58 519.71,390.08 510.21,400.39 C504.41,406.68 502.74,410.51 502.21,418.76 C501.48,430.01 505.67,438.54 514.64,444.09 C523.41,449.51 532.31,449.94 541.70,445.41 ZM 374.54 445.63 C380.24,442.98 384.40,438.55 387.27,432.10 C389.88,426.24 389.41,412.09 386.47,407.50 C380.54,398.25 368.70,392.24 358.48,393.29 C344.96,394.69 335.99,405.52 336.01,420.43 C336.04,440.08 357.01,453.80 374.54,445.63 ZM 1490.76 378.63 L 1491.02 339.77 L 1495.52 343.91 C1502.37,350.23 1511.07,355.45 1519.17,358.10 C1525.32,360.11 1528.51,360.50 1539.00,360.50 C1554.24,360.50 1562.63,358.14 1573.67,350.76 C1586.06,342.47 1594.53,331.27 1599.59,316.49 C1603.23,305.83 1604.07,288.91 1601.52,277.46 C1599.42,268.01 1592.52,254.20 1586.41,247.22 C1580.46,240.41 1568.25,232.47 1559.50,229.71 C1553.72,227.88 1550.15,227.50 1539.00,227.50 C1527.45,227.50 1524.44,227.85 1518.17,229.90 C1510.32,232.47 1501.70,237.56 1495.09,243.53 L 1491.00 247.23 L 1491.00 238.62 L 1491.00 230.00 L 1481.50 230.00 L 1472.00 230.00 L 1472.00 324.04 L 1472.00 418.08 L 1481.25 417.79 L 1490.50 417.50 L 1490.76 378.63 ZM 567.98 379.25 C575.19,375.62 578.32,365.39 574.48,357.97 C571.38,351.97 577.72,352.30 452.76,351.64 C339.97,351.06 337.94,351.01 334.03,349.01 C327.30,345.58 325.16,338.53 328.96,332.30 C331.81,327.63 335.26,326.34 347.00,325.57 C352.77,325.19 367.62,324.01 380.00,322.95 C427.35,318.90 449.44,316.98 476.79,314.53 C492.35,313.13 518.45,310.86 534.79,309.48 C551.13,308.11 566.53,306.70 569.00,306.37 C575.61,305.48 579.43,302.75 581.79,297.24 C584.52,290.85 588.35,278.02 587.71,277.38 C587.19,276.86 584.64,277.08 538.50,281.50 C524.20,282.87 507.55,284.46 501.50,285.03 C495.45,285.60 483.75,286.71 475.50,287.49 C436.36,291.21 425.99,292.13 422.50,292.19 C421.40,292.20 412.40,293.06 402.50,294.08 C383.52,296.05 363.75,297.78 355.68,298.17 L 350.85 298.41 L 342.89 279.46 C338.52,269.03 332.06,253.98 328.54,246.00 C325.02,238.02 320.80,228.12 319.15,224.00 C317.51,219.88 314.05,211.77 311.47,206.00 C308.88,200.23 303.62,188.07 299.78,179.00 C292.92,162.82 291.15,158.70 281.54,136.50 C278.92,130.45 273.91,118.65 270.41,110.28 C263.47,93.66 258.23,82.82 254.22,76.75 C248.73,68.46 236.12,62.04 222.50,60.61 C219.20,60.26 197.51,59.30 174.30,58.48 C126.10,56.76 126.58,56.71 121.71,64.23 C114.75,74.96 121.77,87.98 135.30,89.42 C138.16,89.73 157.47,90.67 178.21,91.51 C218.18,93.14 223.69,93.91 227.97,98.46 C231.05,101.74 243.15,129.07 274.72,204.00 C279.93,216.38 285.05,228.27 286.10,230.44 C287.14,232.60 288.00,234.77 288.00,235.24 C288.00,235.72 288.86,238.01 289.92,240.32 C290.98,242.64 294.63,251.28 298.04,259.52 C301.45,267.76 306.91,280.80 310.16,288.50 L 316.07 302.50 L 313.95 304.00 C300.03,313.83 293.59,329.96 296.99,346.51 C300.47,363.53 313.22,376.81 329.05,379.91 C331.50,380.39 385.48,380.83 449.00,380.89 C557.09,380.99 564.72,380.88 567.98,379.25 ZM 966.06 360.88 C970.70,359.71 977.65,357.27 981.50,355.45 C988.13,352.31 997.00,345.78 997.00,344.04 C997.00,342.64 981.04,323.00 979.90,323.00 C979.30,323.00 975.12,324.83 970.61,327.06 C938.66,342.89 906.41,323.45 908.20,289.44 C908.77,278.51 912.62,270.42 920.89,262.76 C929.25,255.02 936.24,252.58 949.99,252.57 C961.36,252.56 967.76,254.11 975.90,258.82 L 980.30 261.36 L 982.40 258.73 C983.55,257.28 987.13,251.76 990.34,246.47 C996.04,237.08 996.13,236.80 994.36,234.84 C991.46,231.64 977.22,225.33 968.50,223.38 C958.00,221.03 939.03,221.01 930.00,223.35 C914.45,227.37 905.02,232.69 894.49,243.38 C874.05,264.12 869.51,299.25 883.77,326.38 C892.66,343.29 911.22,357.12 931.00,361.56 C940.19,363.62 956.40,363.31 966.06,360.88 ZM 795.00 359.57 C826.65,351.13 848.33,323.76 852.89,286.50 C854.18,275.97 854.42,154.22 853.16,152.22 C852.55,151.26 848.49,151.01 836.42,151.22 L 820.50 151.50 L 819.95 220.00 C819.36,294.11 819.50,292.20 813.74,303.55 C810.58,309.75 802.96,318.37 797.67,321.71 C784.76,329.86 763.57,330.92 750.19,324.10 C743.88,320.88 734.65,311.70 731.18,305.19 C724.89,293.38 724.81,292.38 724.12,218.00 L 723.50 150.50 L 708.64 150.22 C698.27,150.03 693.34,150.30 692.34,151.13 C691.12,152.14 690.96,162.72 691.25,223.41 C691.59,293.24 691.63,294.65 693.83,302.94 C697.43,316.56 703.99,328.76 712.65,337.96 C723.75,349.77 732.92,355.15 749.50,359.59 C757.53,361.74 760.12,361.97 773.50,361.66 C783.57,361.42 790.64,360.73 795.00,359.57 ZM 1099.59 359.00 C1127.66,351.91 1145.23,331.34 1145.32,305.50 C1145.37,289.22 1138.87,275.54 1126.56,266.05 C1119.40,260.52 1110.38,256.30 1088.00,247.99 C1063.64,238.94 1056.00,235.04 1048.93,228.03 C1042.12,221.28 1040.00,215.81 1040.01,205.07 C1040.02,195.98 1042.69,189.42 1048.63,183.91 C1057.79,175.42 1066.62,172.62 1082.36,173.21 C1098.45,173.80 1109.62,178.16 1122.34,188.78 L 1126.41 192.18 L 1132.71 185.70 C1136.17,182.14 1139.00,178.64 1139.00,177.94 C1139.00,175.93 1130.75,168.54 1124.33,164.79 C1110.01,156.43 1098.75,153.50 1081.00,153.50 C1065.93,153.50 1058.52,155.19 1046.04,161.48 C1022.73,173.24 1012.52,205.35 1024.55,229.09 C1028.46,236.81 1032.52,241.46 1040.77,247.67 C1049.15,253.98 1057.56,258.05 1074.50,264.01 C1107.96,275.78 1115.49,280.13 1121.49,291.16 C1123.72,295.26 1124.45,298.09 1124.78,303.96 C1126.08,326.79 1108.80,341.49 1081.00,341.20 C1061.36,341.00 1045.60,334.22 1029.74,319.15 L 1025.98 315.58 L 1019.55 321.96 C1012.08,329.35 1012.06,329.04 1020.78,337.56 C1031.28,347.83 1046.95,356.01 1062.50,359.34 C1072.99,361.58 1089.99,361.43 1099.59,359.00 ZM 1400.50 357.64 C1422.52,350.57 1439.56,331.85 1444.60,309.20 C1446.88,298.93 1446.14,281.96 1443.02,273.00 C1439.05,261.61 1434.87,254.86 1426.50,246.37 C1417.69,237.43 1409.58,232.65 1397.92,229.55 C1387.69,226.82 1367.03,227.68 1357.12,231.24 C1335.64,238.95 1319.18,258.00 1314.53,280.52 C1309.14,306.63 1318.72,332.23 1339.73,347.80 C1347.47,353.54 1353.27,356.30 1363.50,359.10 C1373.44,361.83 1389.43,361.20 1400.50,357.64 ZM 1710.00 358.46 C1713.03,357.53 1718.20,355.42 1721.50,353.76 C1728.35,350.32 1740.02,341.40 1739.96,339.66 C1739.93,339.02 1737.73,336.06 1735.06,333.08 L 1730.21 327.67 L 1726.35 330.70 C1716.79,338.24 1702.69,343.00 1689.90,343.00 C1665.07,343.00 1646.86,327.90 1642.57,303.75 L 1641.91 300.00 L 1692.99 300.00 C1740.69,300.00 1744.11,299.88 1744.78,298.25 C1746.07,295.10 1745.37,278.65 1743.65,272.00 C1740.73,260.64 1735.44,251.26 1727.59,243.48 C1715.81,231.82 1705.32,227.70 1687.50,227.73 C1671.59,227.76 1659.48,231.91 1646.77,241.68 C1623.80,259.34 1616.22,297.73 1630.13,325.95 C1638.31,342.54 1652.50,353.70 1672.24,359.06 C1678.22,360.68 1681.71,360.95 1692.00,360.59 C1699.69,360.32 1706.61,359.50 1710.00,358.46 ZM 1846.78 359.00 C1857.30,356.48 1868.62,350.90 1875.24,344.96 L 1880.41 340.33 L 1876.46 335.20 C1874.28,332.38 1871.79,329.83 1870.92,329.52 C1870.01,329.21 1866.40,330.90 1862.42,333.52 C1853.81,339.18 1845.00,342.03 1834.00,342.72 C1807.38,344.38 1788.78,329.89 1783.52,303.41 L 1782.91 300.32 L 1833.68 299.60 C1861.60,299.21 1884.68,298.65 1884.97,298.36 C1886.21,297.12 1885.26,277.11 1883.67,271.00 C1875.79,240.73 1850.03,223.52 1819.23,227.95 C1799.99,230.72 1784.72,240.51 1774.98,256.32 C1768.40,266.99 1764.98,277.78 1764.29,290.00 C1762.42,323.29 1782.21,351.44 1812.77,358.95 C1823.18,361.51 1836.23,361.53 1846.78,359.00 ZM 1189.00 314.50 L 1189.50 271.50 L 1192.28 266.76 C1195.78,260.81 1203.96,252.57 1208.84,250.08 C1216.64,246.10 1223.82,244.72 1234.15,245.22 C1242.58,245.63 1244.83,246.13 1250.41,248.88 C1258.20,252.72 1264.03,258.96 1267.20,266.85 C1269.40,272.33 1269.48,273.79 1269.98,315.00 L 1270.50 357.50 L 1279.50 357.50 L 1288.50 357.50 L 1288.76 316.51 C1289.00,278.70 1288.87,274.93 1287.08,267.84 C1284.17,256.35 1280.38,249.36 1273.01,241.89 C1262.42,231.16 1251.78,226.99 1235.04,227.01 C1218.41,227.04 1207.51,230.78 1195.75,240.48 L 1189.00 246.04 L 1189.00 200.52 L 1189.00 155.00 L 1179.50 155.00 L 1170.00 155.00 L 1170.00 255.83 C1170.00,311.29 1170.32,356.98 1170.70,357.37 C1171.09,357.76 1175.25,357.94 1179.95,357.79 L 1188.50 357.50 L 1189.00 314.50 ZM 393.55 283.98 C412.19,282.32 433.76,280.30 441.47,279.48 C463.39,277.18 483.92,275.20 503.50,273.51 C513.40,272.65 527.58,271.31 535.00,270.53 C542.42,269.75 556.38,268.38 566.00,267.50 C575.62,266.62 585.53,265.58 588.00,265.20 L 592.50 264.50 L 597.27 250.50 C602.19,236.06 603.79,230.95 608.98,213.00 C610.65,207.23 616.77,187.99 622.59,170.26 C632.42,140.28 633.08,137.77 632.00,134.50 C631.35,132.54 629.25,129.76 627.25,128.24 L 623.66 125.50 L 563.08 124.89 C529.76,124.55 457.73,123.70 403.00,122.99 C348.27,122.29 300.05,122.04 295.83,122.43 L 288.17 123.16 L 289.69 126.83 C291.96,132.33 304.36,160.55 311.73,177.00 C315.30,184.98 319.03,193.30 320.00,195.50 C322.02,200.05 336.99,235.49 348.51,263.00 C356.12,281.17 358.75,287.00 359.35,287.00 C359.52,287.00 374.91,285.64 393.55,283.98 ZM 1525.72 341.43 C1512.21,338.16 1499.59,328.48 1493.75,316.92 C1491.05,311.58 1491.00,311.12 1491.00,293.43 L 1491.00 275.38 L 1494.57 269.44 C1496.53,266.17 1499.34,262.22 1500.82,260.67 C1514.89,245.80 1539.17,240.98 1557.56,249.40 C1568.68,254.49 1579.06,267.45 1582.45,280.46 C1585.64,292.72 1583.65,309.10 1577.73,319.20 C1567.00,337.51 1546.21,346.40 1525.72,341.43 ZM 1366.40 341.11 C1353.15,337.32 1343.53,328.91 1336.72,315.16 L 1332.50 306.65 L 1332.50 294.58 C1332.50,282.69 1332.56,282.37 1336.23,274.68 C1342.86,260.79 1355.43,250.21 1369.00,247.09 C1375.33,245.63 1386.57,245.78 1392.66,247.40 C1413.39,252.92 1427.00,271.58 1427.00,294.48 C1427.00,327.03 1397.23,349.94 1366.40,341.11 ZM 1643.00 282.04 C1643.00,279.31 1646.86,269.22 1649.52,265.00 C1655.36,255.71 1667.88,247.97 1680.17,246.04 C1691.88,244.19 1705.19,247.36 1712.59,253.75 C1719.39,259.63 1726.00,273.11 1726.00,281.11 L 1726.00 284.00 L 1684.50 284.00 C1643.93,284.00 1643.00,283.96 1643.00,282.04 ZM 1784.32 280.40 C1785.30,274.40 1790.59,264.35 1795.59,259.00 C1807.77,245.99 1830.65,241.70 1846.51,249.46 C1855.74,253.98 1863.21,264.08 1865.97,275.76 C1866.65,278.66 1866.95,281.69 1866.63,282.51 C1866.14,283.80 1860.42,284.00 1824.90,284.00 L 1783.74 284.00 L 1784.32 280.40 ZM 592.37 206.75 C592.99,201.72 599.21,175.18 604.08,156.78 C605.35,151.98 606.19,147.85 605.94,147.61 C605.53,147.20 583.85,145.59 543.50,142.97 C534.70,142.40 519.17,141.29 509.00,140.50 C498.83,139.72 481.61,138.54 470.75,137.88 C459.89,137.23 451.00,136.31 451.00,135.85 C451.00,135.38 453.36,134.99 456.25,134.97 C509.62,134.65 608.48,135.30 611.50,135.99 C616.40,137.10 620.00,141.01 620.00,145.21 C620.00,146.91 618.92,150.60 617.60,153.40 C616.28,156.21 612.42,165.93 609.02,175.00 C601.11,196.13 595.89,209.17 594.70,210.75 C592.63,213.49 591.73,211.94 592.37,206.75 Z" fill="rgb(254,254,254)"/>
</g>
</svg>